<svg width="784" height="345" viewBox="0 0 784 345" fill="none" xmlns="http://www.w3.org/2000/svg">
<rect x="302.5" y="49.5" width="441" height="246" rx="14.5" fill="#0452A0" stroke="#0452A0"/>
<path d="M759 173.444V167.889C759 167.889 751.736 165.81 748.818 165C745.239 164.007 743 163 743 163V179C743 179 745.152 177.642 748.818 176.5C751.706 175.601 759 173.444 759 173.444Z" fill="#0452A0" stroke="#0452A0" stroke-width="8"/>
<g filter="url(#filter0_d_14_33)">
<rect x="34" y="49" width="302" height="247" rx="15" fill="#6BB5FF"/>
<rect x="34.5" y="49.5" width="301" height="246" rx="14.5" stroke="#6BB6FF"/>
</g>
<path d="M385.156 156H375.156L375.219 148.125H385.156C387.427 148.125 389.344 147.604 390.906 146.562C392.469 145.5 393.656 143.938 394.469 141.875C395.281 139.792 395.688 137.26 395.688 134.281V132.188C395.688 129.938 395.458 127.958 395 126.25C394.542 124.521 393.865 123.073 392.969 121.906C392.073 120.74 390.958 119.865 389.625 119.281C388.312 118.698 386.802 118.406 385.094 118.406H374.969V110.5H385.094C388.177 110.5 390.99 111.021 393.531 112.062C396.094 113.104 398.302 114.594 400.156 116.531C402.031 118.469 403.479 120.76 404.5 123.406C405.521 126.052 406.031 129 406.031 132.25V134.281C406.031 137.51 405.521 140.458 404.5 143.125C403.479 145.771 402.031 148.062 400.156 150C398.302 151.917 396.104 153.396 393.562 154.438C391.021 155.479 388.219 156 385.156 156ZM380.938 110.5V156H370.75V110.5H380.938ZM438.406 140.75H448.531C448.365 143.875 447.51 146.635 445.969 149.031C444.448 151.406 442.333 153.271 439.625 154.625C436.917 155.958 433.698 156.625 429.969 156.625C426.99 156.625 424.323 156.115 421.969 155.094C419.615 154.073 417.615 152.615 415.969 150.719C414.344 148.802 413.094 146.5 412.219 143.812C411.365 141.104 410.938 138.052 410.938 134.656V131.875C410.938 128.479 411.385 125.427 412.281 122.719C413.177 120.01 414.458 117.698 416.125 115.781C417.792 113.865 419.792 112.396 422.125 111.375C424.458 110.354 427.062 109.844 429.938 109.844C433.812 109.844 437.083 110.542 439.75 111.938C442.417 113.333 444.479 115.25 445.938 117.688C447.417 120.125 448.302 122.906 448.594 126.031H438.438C438.354 124.26 438.021 122.771 437.438 121.562C436.854 120.333 435.958 119.406 434.75 118.781C433.542 118.156 431.938 117.844 429.938 117.844C428.479 117.844 427.198 118.115 426.094 118.656C425.01 119.198 424.104 120.042 423.375 121.188C422.667 122.333 422.135 123.792 421.781 125.562C421.427 127.312 421.25 129.396 421.25 131.812V134.656C421.25 137.052 421.406 139.125 421.719 140.875C422.031 142.625 422.531 144.073 423.219 145.219C423.927 146.365 424.833 147.219 425.938 147.781C427.042 148.344 428.385 148.625 429.969 148.625C431.781 148.625 433.292 148.344 434.5 147.781C435.708 147.198 436.635 146.323 437.281 145.156C437.927 143.99 438.302 142.521 438.406 140.75ZM492.125 132.25V134.281C492.125 137.74 491.646 140.844 490.688 143.594C489.75 146.344 488.406 148.688 486.656 150.625C484.927 152.562 482.865 154.052 480.469 155.094C478.094 156.115 475.458 156.625 472.562 156.625C469.667 156.625 467.021 156.115 464.625 155.094C462.229 154.052 460.146 152.562 458.375 150.625C456.625 148.688 455.271 146.344 454.312 143.594C453.354 140.844 452.875 137.74 452.875 134.281V132.25C452.875 128.792 453.354 125.688 454.312 122.938C455.271 120.167 456.615 117.812 458.344 115.875C460.094 113.938 462.167 112.458 464.562 111.438C466.958 110.396 469.604 109.875 472.5 109.875C475.396 109.875 478.042 110.396 480.438 111.438C482.833 112.458 484.896 113.938 486.625 115.875C488.375 117.812 489.729 120.167 490.688 122.938C491.646 125.688 492.125 128.792 492.125 132.25ZM481.844 134.281V132.188C481.844 129.875 481.635 127.833 481.219 126.062C480.802 124.271 480.198 122.771 479.406 121.562C478.615 120.354 477.635 119.448 476.469 118.844C475.302 118.219 473.979 117.906 472.5 117.906C470.958 117.906 469.615 118.219 468.469 118.844C467.323 119.448 466.354 120.354 465.562 121.562C464.792 122.771 464.198 124.271 463.781 126.062C463.385 127.833 463.188 129.875 463.188 132.188V134.281C463.188 136.573 463.385 138.615 463.781 140.406C464.198 142.177 464.802 143.677 465.594 144.906C466.385 146.135 467.354 147.062 468.5 147.688C469.667 148.312 471.021 148.625 472.562 148.625C474.042 148.625 475.354 148.312 476.5 147.688C477.667 147.062 478.646 146.135 479.438 144.906C480.229 143.677 480.823 142.177 481.219 140.406C481.635 138.615 481.844 136.573 481.844 134.281ZM503.25 110.5H511.688L522.625 143.031L533.531 110.5H541.969L526.031 156H519.188L503.25 110.5ZM498.375 110.5H506.969L508.562 144.219V156H498.375V110.5ZM538.25 110.5H546.875V156H536.656V144.219L538.25 110.5ZM572.375 140.188H560.938V132.281H572.375C574.062 132.281 575.417 132 576.438 131.438C577.479 130.875 578.24 130.104 578.719 129.125C579.219 128.125 579.469 127 579.469 125.75C579.469 124.458 579.219 123.26 578.719 122.156C578.24 121.031 577.479 120.125 576.438 119.438C575.417 118.75 574.062 118.406 572.375 118.406H564.625V156H554.438V110.5H572.375C576 110.5 579.104 111.156 581.688 112.469C584.292 113.781 586.281 115.583 587.656 117.875C589.052 120.146 589.75 122.75 589.75 125.688C589.75 128.625 589.052 131.177 587.656 133.344C586.281 135.51 584.292 137.198 581.688 138.406C579.104 139.594 576 140.188 572.375 140.188ZM388.688 215.188H377.25V207.281H388.688C390.375 207.281 391.729 207 392.75 206.438C393.792 205.875 394.552 205.104 395.031 204.125C395.531 203.125 395.781 202 395.781 200.75C395.781 199.458 395.531 198.26 395.031 197.156C394.552 196.031 393.792 195.125 392.75 194.438C391.729 193.75 390.375 193.406 388.688 193.406H380.938V231H370.75V185.5H388.688C392.312 185.5 395.417 186.156 398 187.469C400.604 188.781 402.594 190.583 403.969 192.875C405.365 195.146 406.062 197.75 406.062 200.688C406.062 203.625 405.365 206.177 403.969 208.344C402.594 210.51 400.604 212.198 398 213.406C395.417 214.594 392.312 215.188 388.688 215.188ZM425.781 194.156L414.031 231H403.156L420 185.5H426.875L425.781 194.156ZM435.531 231L423.75 194.156L422.531 185.5H429.5L446.406 231H435.531ZM435.031 214.062V221.938H411.312V214.062H435.031ZM464.594 231H454.594L454.656 223.125H464.594C466.865 223.125 468.781 222.604 470.344 221.562C471.906 220.5 473.094 218.938 473.906 216.875C474.719 214.792 475.125 212.26 475.125 209.281V207.188C475.125 204.938 474.896 202.958 474.438 201.25C473.979 199.521 473.302 198.073 472.406 196.906C471.51 195.74 470.396 194.865 469.062 194.281C467.75 193.698 466.24 193.406 464.531 193.406H454.406V185.5H464.531C467.615 185.5 470.427 186.021 472.969 187.062C475.531 188.104 477.74 189.594 479.594 191.531C481.469 193.469 482.917 195.76 483.938 198.406C484.958 201.052 485.469 204 485.469 207.25V209.281C485.469 212.51 484.958 215.458 483.938 218.125C482.917 220.771 481.469 223.062 479.594 225C477.74 226.917 475.542 228.396 473 229.438C470.458 230.479 467.656 231 464.594 231ZM460.375 185.5V231H450.188V185.5H460.375ZM491.688 185.5H509.156C512.635 185.5 515.646 186.021 518.188 187.062C520.75 188.104 522.719 189.646 524.094 191.688C525.469 193.729 526.156 196.25 526.156 199.25C526.156 201.75 525.75 203.875 524.938 205.625C524.125 207.375 522.979 208.823 521.5 209.969C520.042 211.115 518.333 212.042 516.375 212.75L513.062 214.562H498.188L498.125 206.656H509.188C510.708 206.656 511.969 206.385 512.969 205.844C513.969 205.302 514.719 204.542 515.219 203.562C515.74 202.562 516 201.396 516 200.062C516 198.688 515.74 197.5 515.219 196.5C514.698 195.5 513.927 194.74 512.906 194.219C511.906 193.677 510.656 193.406 509.156 193.406H501.875V231H491.688V185.5ZM516.875 231L506.656 210.781L517.406 210.75L527.781 230.531V231H516.875ZM543.906 185.5V231H533.75V185.5H543.906ZM589.656 185.5V231H579.5L562.312 201.594V231H552.125V185.5H562.312L579.531 214.906V185.5H589.656ZM627.719 203.812V211.688H604.156V203.812H627.719ZM607.375 185.5V231H597.188V185.5H607.375ZM634.75 185.5V231H624.594V185.5H634.75ZM680.25 207.25V209.281C680.25 212.74 679.771 215.844 678.812 218.594C677.875 221.344 676.531 223.688 674.781 225.625C673.052 227.562 670.99 229.052 668.594 230.094C666.219 231.115 663.583 231.625 660.688 231.625C657.792 231.625 655.146 231.115 652.75 230.094C650.354 229.052 648.271 227.562 646.5 225.625C644.75 223.688 643.396 221.344 642.438 218.594C641.479 215.844 641 212.74 641 209.281V207.25C641 203.792 641.479 200.688 642.438 197.938C643.396 195.167 644.74 192.812 646.469 190.875C648.219 188.938 650.292 187.458 652.688 186.438C655.083 185.396 657.729 184.875 660.625 184.875C663.521 184.875 666.167 185.396 668.562 186.438C670.958 187.458 673.021 188.938 674.75 190.875C676.5 192.812 677.854 195.167 678.812 197.938C679.771 200.688 680.25 203.792 680.25 207.25ZM669.969 209.281V207.188C669.969 204.875 669.76 202.833 669.344 201.062C668.927 199.271 668.323 197.771 667.531 196.562C666.74 195.354 665.76 194.448 664.594 193.844C663.427 193.219 662.104 192.906 660.625 192.906C659.083 192.906 657.74 193.219 656.594 193.844C655.448 194.448 654.479 195.354 653.688 196.562C652.917 197.771 652.323 199.271 651.906 201.062C651.51 202.833 651.312 204.875 651.312 207.188V209.281C651.312 211.573 651.51 213.615 651.906 215.406C652.323 217.177 652.927 218.677 653.719 219.906C654.51 221.135 655.479 222.062 656.625 222.688C657.792 223.312 659.146 223.625 660.688 223.625C662.167 223.625 663.479 223.312 664.625 222.688C665.792 222.062 666.771 221.135 667.562 219.906C668.354 218.677 668.948 217.177 669.344 215.406C669.76 213.615 669.969 211.573 669.969 209.281ZM710.094 219C710.094 218.229 709.979 217.542 709.75 216.938C709.521 216.312 709.104 215.74 708.5 215.219C707.896 214.698 707.042 214.177 705.938 213.656C704.833 213.115 703.385 212.562 701.594 212C699.552 211.333 697.604 210.583 695.75 209.75C693.917 208.896 692.281 207.906 690.844 206.781C689.406 205.656 688.271 204.344 687.438 202.844C686.625 201.344 686.219 199.594 686.219 197.594C686.219 195.656 686.646 193.906 687.5 192.344C688.354 190.781 689.552 189.448 691.094 188.344C692.635 187.219 694.448 186.365 696.531 185.781C698.615 185.177 700.906 184.875 703.406 184.875C706.74 184.875 709.667 185.469 712.188 186.656C714.729 187.823 716.708 189.469 718.125 191.594C719.542 193.698 720.25 196.146 720.25 198.938H710.125C710.125 197.708 709.865 196.625 709.344 195.688C708.844 194.729 708.073 193.979 707.031 193.438C706.01 192.896 704.729 192.625 703.188 192.625C701.688 192.625 700.427 192.854 699.406 193.312C698.406 193.75 697.646 194.354 697.125 195.125C696.625 195.896 696.375 196.74 696.375 197.656C696.375 198.385 696.562 199.052 696.938 199.656C697.333 200.24 697.896 200.792 698.625 201.312C699.375 201.812 700.292 202.292 701.375 202.75C702.458 203.208 703.698 203.646 705.094 204.062C707.531 204.833 709.688 205.688 711.562 206.625C713.458 207.562 715.052 208.625 716.344 209.812C717.635 211 718.604 212.344 719.25 213.844C719.917 215.344 720.25 217.042 720.25 218.938C720.25 220.958 719.854 222.75 719.062 224.312C718.292 225.875 717.167 227.208 715.688 228.312C714.229 229.396 712.479 230.219 710.438 230.781C708.396 231.344 706.115 231.625 703.594 231.625C701.302 231.625 699.042 231.333 696.812 230.75C694.583 230.146 692.562 229.229 690.75 228C688.958 226.771 687.521 225.208 686.438 223.312C685.375 221.396 684.844 219.125 684.844 216.5H695.031C695.031 217.875 695.229 219.042 695.625 220C696.021 220.938 696.583 221.698 697.312 222.281C698.062 222.865 698.969 223.281 700.031 223.531C701.094 223.781 702.281 223.906 703.594 223.906C705.115 223.906 706.344 223.698 707.281 223.281C708.24 222.844 708.948 222.25 709.406 221.5C709.865 220.75 710.094 219.917 710.094 219Z" fill="white"/>
<path d="M66 174.981L111.856 131L131 155.074L101.616 174.981L132 196L121.5 207L66 174.981Z" fill="white" stroke="white" stroke-width="8"/>
<path d="M302 175.695L249.194 143L237.213 155.611L266.5 175.695L231 201.85L249.194 221L302 175.695Z" fill="white" stroke="white" stroke-width="8"/>
<path d="M153.111 226L126 209.745L136.222 198.598L153.111 208.816L212.667 115L234.444 134.042L246 141.008L234.444 154.013L224.222 147.51L153.111 226Z" fill="#4132E4"/>
<path d="M234.444 134.042L212.667 115L153.111 208.816L136.222 198.598L126 209.745L153.111 226L224.222 147.51M234.444 134.042L246 141.008L234.444 154.013L224.222 147.51M234.444 134.042L224.222 147.51" stroke="#4132E4" stroke-width="8"/>
<path d="M346 173.444V167.889C346 167.889 341.006 165.81 339 165C336.539 164.007 335 163 335 163V179C335 179 336.479 177.642 339 176.5C340.985 175.601 346 173.444 346 173.444Z" fill="#6BB5FF" stroke="#6BB6FF" stroke-width="8"/>
<path d="M25 173.444V167.889C25 167.889 29.994 165.81 32 165C34.4606 164.007 36 163 36 163V179C36 179 34.5207 177.642 32 176.5C30.0149 175.601 25 173.444 25 173.444Z" fill="#6BB5FF" stroke="#6BB6FF" stroke-width="8"/>
<defs>
<filter id="filter0_d_14_33" x="8" y="0" width="400" height="345" filterUnits="userSpaceOnUse" color-interpolation-filters="sRGB">
<feFlood flood-opacity="0" result="BackgroundImageFix"/>
<feColorMatrix in="SourceAlpha" type="matrix" values="0 0 0 0 0 0 0 0 0 0 0 0 0 0 0 0 0 0 127 0" result="hardAlpha"/>
<feOffset dx="23"/>
<feGaussianBlur stdDeviation="24.5"/>
<feComposite in2="hardAlpha" operator="out"/>
<feColorMatrix type="matrix" values="0 0 0 0 0 0 0 0 0 0 0 0 0 0 0 0 0 0 0.25 0"/>
<feBlend mode="normal" in2="BackgroundImageFix" result="effect1_dropShadow_14_33"/>
<feBlend mode="normal" in="SourceGraphic" in2="effect1_dropShadow_14_33" result="shape"/>
</filter>
</defs>
</svg>
